<svg width="91" height="91" viewBox="0 0 91 91" fill="none" xmlns="http://www.w3.org/2000/svg">
<circle cx="45.5" cy="45.5" r="45.5" fill="url(#paint0_linear)"/>
<path d="M50.904 42.656C54.696 42.944 57.744 44.216 60.048 46.472C62.4 48.68 63.576 51.44 63.576 54.752C63.576 57.296 62.952 59.6 61.704 61.664C60.456 63.728 58.728 65.36 56.52 66.56C54.36 67.712 51.936 68.288 49.248 68.288C47.664 68.288 45.936 68.216 44.064 68.072C43.392 68.024 42.6 67.976 41.688 67.928C40.776 67.88 39.768 67.856 38.664 67.856L33.768 67.928C32.904 67.976 31.68 68 30.096 68C30 68 29.952 67.856 29.952 67.568C29.952 67.28 30 67.136 30.096 67.136C31.92 67.136 33.264 67.016 34.128 66.776C34.992 66.488 35.592 66.008 35.928 65.336C36.264 64.664 36.432 63.608 36.432 62.168V28.832C36.432 27.392 36.264 26.336 35.928 25.664C35.64 24.992 35.064 24.536 34.2 24.296C33.336 24.008 32.016 23.864 30.24 23.864C30.096 23.864 30.024 23.72 30.024 23.432C30.024 23.144 30.096 23 30.24 23L33.768 23.072C35.784 23.168 37.416 23.216 38.664 23.216C39.528 23.216 40.32 23.192 41.04 23.144C41.808 23.096 42.456 23.048 42.984 23C44.472 22.856 45.864 22.784 47.16 22.784C51.192 22.784 54.216 23.672 56.232 25.448C58.248 27.176 59.256 29.456 59.256 32.288C59.256 34.592 58.512 36.656 57.024 38.48C55.536 40.256 53.496 41.648 50.904 42.656ZM45.576 23.864C44.328 23.864 43.392 23.96 42.768 24.152C42.192 24.344 41.76 24.8 41.472 25.52C41.184 26.24 41.04 27.392 41.04 28.976V42.656L44.28 42.728C47.784 42.728 50.376 41.84 52.056 40.064C53.736 38.24 54.576 35.84 54.576 32.864C54.576 30.176 53.832 28.016 52.344 26.384C50.904 24.704 48.648 23.864 45.576 23.864ZM48.168 66.992C51.672 66.992 54.264 66.104 55.944 64.328C57.672 62.504 58.536 59.912 58.536 56.552C58.536 52.904 57.456 49.952 55.296 47.696C53.184 45.44 50.256 44.288 46.512 44.24C44.976 44.192 43.152 44.24 41.04 44.384V62.168C41.04 63.416 41.208 64.376 41.544 65.048C41.928 65.72 42.624 66.224 43.632 66.56C44.688 66.848 46.2 66.992 48.168 66.992Z" fill="black"/>
<defs>
<linearGradient id="paint0_linear" x1="45.5" y1="0" x2="45.5" y2="91" gradientUnits="userSpaceOnUse">
<stop stop-color="#FFE600"/>
<stop offset="1" stop-color="#FFA800"/>
</linearGradient>
</defs>
</svg>
